<svg xmlns="http://www.w3.org/2000/svg"
     width="24"
     height="24"
     viewBox="0 0 24 24"
     fill="#181717">

<path d="M12 .5C5.648.5.5 5.648.5 12a11.5 11.5 0 0 0 7.863 10.92c.575.106.787-.25.787-.556v-2.02c-3.2.695-3.877-1.543-3.877-1.543-.523-1.33-1.277-1.684-1.277-1.684-1.043-.713.079-.699.079-.699 1.154.081 1.762 1.186 1.762 1.186 1.025 1.757 2.69 1.25 3.346.956.104-.742.401-1.25.73-1.538-2.554-.291-5.238-1.277-5.238-5.684 0-1.255.448-2.282 1.183-3.087-.119-.291-.513-1.463.112-3.05 0 0 .964-.309 3.16 1.18a10.98 10.98 0 0 1 5.754 0c2.194-1.489 3.157-1.18 3.157-1.18.627 1.587.233 2.759.115 3.05.737.805 1.181 1.832 1.181 3.087 0 4.418-2.688 5.389-5.25 5.676.412.355.779 1.055.779 2.126v3.151c0 .309.209.668.793.555A11.503 11.503 0 0 0 23.5 12C23.5 5.648 18.352.5 12 .5z"/>

</svg>