<svg xmlns="http://www.w3.org/2000/svg"
     width="24"
     height="24"
     viewBox="0 0 24 24"
     fill="#2563EB">

<path d="M12 2a10 10 0 100 20 10 10 0 000-20zm6.93 9h-3.08a15.5 15.5 0 00-1.16-4.08A8.02 8.02 0 0118.93 11zM12 4.06c.77.95 1.73 3.03 2.02 6.94H9.98C10.27 7.09 11.23 5.01 12 4.06zM9.31 6.92A15.5 15.5 0 008.15 11H5.07a8.02 8.02 0 014.24-4.08zM5.07 13h3.08c.17 1.43.58 2.82 1.16 4.08A8.02 8.02 0 015.07 13zm6.93 6.94c-.77-.95-1.73-3.03-2.02-6.94h4.04c-.29 3.91-1.25 5.99-2.02 6.94zm2.69-2.86c.58-1.26.99-2.65 1.16-4.08h3.08a8.02 8.02 0 01-4.24 4.08z"/>

</svg>